<?xml version="1.0" encoding="UTF-8" standalone="no"?>
<!DOCTYPE svg PUBLIC "-//W3C//DTD SVG 1.1//EN" "http://www.w3.org/Graphics/SVG/1.1/DTD/svg11.dtd">
<svg width="100%" height="100%" viewBox="0 0 900 900" version="1.1" xmlns="http://www.w3.org/2000/svg" xmlns:xlink="http://www.w3.org/1999/xlink" xml:space="preserve" xmlns:serif="http://www.serif.com/" style="fill-rule:evenodd;clip-rule:evenodd;stroke-linejoin:round;stroke-miterlimit:2;">
    <g id="finalll" transform="matrix(0.947441,0,0,0.952471,23.9229,60.7516)">
        <path d="M515.486,675C513.621,675 511.937,673.894 511.205,672.189C510.473,670.483 510.834,668.508 512.123,667.169C540.936,637.22 643.656,530.454 666.154,507.069C667.178,506.006 668.649,505.489 670.117,505.679C671.585,505.869 672.875,506.742 673.591,508.031C687.752,533.52 746.884,639.953 762.539,668.13C763.336,669.565 763.311,671.311 762.474,672.722C761.637,674.134 760.113,675 758.465,675C720.778,675 559.132,675 515.486,675Z" style="fill:rgb(245,73,74);"/>
        <g transform="matrix(1.01031,0,0,1.0499,-139.346,-893.407)">
            <path d="M600,1489.02C600,1490.82 601.144,1492.44 602.891,1493.11C604.637,1493.78 606.634,1493.37 607.935,1492.07C641.249,1458.75 768.948,1331.05 787.849,1312.15C789.243,1310.76 789.528,1308.66 788.553,1306.97C772.517,1279.19 643.475,1055.68 608.639,995.349C607.623,993.588 605.491,992.709 603.456,993.212C601.422,993.714 600,995.47 600,997.482C600,1078.54 600,1422.95 600,1489.02Z" style="fill:rgb(64,142,245);"/>
        </g>
        <g transform="matrix(1.0375,0,0,1.797,-3290.67,-4176.9)">
            <path d="M3359.01,2640.99C3359.78,2640.22 3361.2,2639.73 3362.75,2639.7C3364.31,2639.67 3365.78,2640.11 3366.64,2640.85C3393.48,2663.79 3430.2,2682.56 3473.25,2695.12C3475.12,2695.65 3476.1,2696.84 3475.63,2698C3475.16,2699.16 3473.36,2699.99 3471.29,2699.99C3429.48,2700 3335.36,2700 3307.75,2700C3306.15,2700 3304.67,2699.51 3303.87,2698.71C3303.07,2697.92 3303.06,2696.94 3303.86,2696.14C3315.15,2684.85 3348.01,2651.99 3359.01,2640.99Z" style="fill:rgb(69,196,176);"/>
        </g>
        <g transform="matrix(1.1241,0,0,1.1241,-3602.44,-2674.8)">
            <path d="M3393.58,2862.16C3392.81,2860.88 3392.8,2859.28 3393.55,2857.99C3408.43,2832.21 3556.53,2575.69 3592.27,2513.79C3593.2,2512.17 3595.11,2511.38 3596.93,2511.86C3598.74,2512.35 3600,2513.98 3600,2515.84L3600,2976.01C3600,2977.06 3599.58,2978.06 3598.83,2978.8C3598.08,2979.53 3597.06,2979.93 3596.01,2979.92L3596.01,2979.92C3553.18,2979.23 3513.06,2967.29 3478.49,2946.92C3478.47,2946.91 3478.46,2946.9 3478.44,2946.89C3478.13,2946.7 3475.41,2945.04 3475.41,2945.04C3475.41,2945.04 3472.21,2943.08 3471.88,2942.88C3471.86,2942.86 3471.84,2942.85 3471.82,2942.84C3439.86,2922.57 3413.03,2894.96 3393.71,2862.37C3393.7,2862.36 3393.7,2862.36 3393.7,2862.35C3393.68,2862.33 3393.64,2862.26 3393.58,2862.16Z" style="fill:rgb(244,125,71);"/>
        </g>
        <g transform="matrix(1.1241,0,0,1.1241,-3602.44,-2674.8)">
            <path d="M3568.09,2502.52C3569.65,2502.32 3571.18,2503.02 3572.05,2504.32C3572.92,2505.61 3572.98,2507.29 3572.2,2508.64C3546.83,2552.6 3411.06,2787.75 3385.6,2831.85C3384.82,2833.21 3383.33,2834.01 3381.75,2833.91C3380.18,2833.81 3378.8,2832.84 3378.19,2831.39C3366.6,2803.27 3360.21,2772.47 3360.21,2740.19C3360.21,2618.67 3450.8,2518.14 3568.09,2502.52Z" style="fill:rgb(255,203,109);"/>
        </g>
    </g>
</svg>
